<svg id="SvgjsSvg1001" width="288" height="288" xmlns="http://www.w3.org/2000/svg" version="1.1" xmlns:xlink="http://www.w3.org/1999/xlink" xmlns:svgjs="http://svgjs.com/svgjs"><defs id="SvgjsDefs1002"></defs><g id="SvgjsG1008" transform="matrix(0.9167,0,0,0.9167,11.995200000000011,11.995087364780687)"><svg xmlns="http://www.w3.org/2000/svg" xmlns:xlink="http://www.w3.org/1999/xlink" width="288" height="288" viewBox="0 0 26 26"><defs><linearGradient id="a"><stop offset="0" stop-color="#6666ff" class="stopColorffd800 svgShape"></stop><stop offset="1" stop-color="#767fad" class="stopColorff6100 svgShape"></stop></linearGradient><linearGradient id="b" x1="906.952" x2="931.379" y1="515.915" y2="546.094" gradientTransform="matrix(.833 0 0 .833 -752.223 596.81)" gradientUnits="userSpaceOnUse" xlink:href="#a"></linearGradient></defs><g transform="translate(0 -1026.362)" fill="#767fad" class="color000 svgShape"><rect width="26" height="26" y="1026.362" fill="url(#b)" rx="5.495" ry="5.495"></rect><path fill="#ffffff" d="M 16.59375 7.15625 C 16.39975 7.15625 16.21875 7.307 16.21875 7.5 L 16.21875 8.21875 L 15.53125 8.21875 C 15.33725 8.21875 15.1875 8.3695 15.1875 8.5625 C 15.1875 8.7555 15.33825 8.90625 15.53125 8.90625 L 16.21875 8.90625 L 16.21875 9.59375 C 16.21875 9.78675 16.40075 9.96875 16.59375 9.96875 C 16.78675 9.96875 16.9375 9.78675 16.9375 9.59375 L 16.9375 8.90625 L 17.625 8.90625 C 17.818 8.90625 17.96875 8.7555 17.96875 8.5625 C 17.96875 8.3695 17.818 8.21875 17.625 8.21875 L 16.9375 8.21875 L 16.9375 7.5 C 16.9375 7.307 16.78775 7.15625 16.59375 7.15625 z M 12.84375 10.0625 C 12.70375 10.0435 12.572 10.09575 12.5 10.21875 C 12.428 10.34275 12.412 10.512 12.5 10.625 C 13.207 11.538 13.3315 12.7785 12.8125 13.8125 C 12.2495 14.8625 11.11725 15.50525 9.90625 15.40625 C 9.76325 15.39325 9.6265 15.46875 9.5625 15.59375 C 9.4975 15.71875 9.50275 15.86075 9.59375 15.96875 C 9.93275 16.37575 10.3515 16.7065 10.8125 16.9375 C 11.3285 17.2085 11.89175 17.34375 12.46875 17.34375 C 13.83675 17.34375 15.0695 16.59 15.6875 15.375 C 16.1405 14.515 16.25875 13.51575 15.96875 12.59375 C 15.67675 11.66175 15.03125 10.92075 14.15625 10.46875 C 13.79225 10.27275 13.33475 10.1325 12.84375 10.0625 z M 9.28125 10.75 C 9.08725 10.75 8.9375 10.90075 8.9375 11.09375 L 8.9375 11.8125 L 8.21875 11.8125 C 8.02475 11.8125 7.875 11.96325 7.875 12.15625 C 7.875 12.34925 8.02575 12.5 8.21875 12.5 L 8.9375 12.5 L 8.9375 13.1875 C 8.9375 13.3805 9.08825 13.5625 9.28125 13.5625 C 9.47525 13.5625 9.625 13.3815 9.625 13.1875 L 9.625 12.5 L 10.3125 12.5 C 10.5065 12.5 10.6875 12.34925 10.6875 12.15625 C 10.6875 11.96325 10.5055 11.8125 10.3125 11.8125 L 9.625 11.8125 L 9.625 11.09375 C 9.625 10.90075 9.47525 10.75 9.28125 10.75 z M 13.53125 10.9375 C 13.63925 10.9785 13.7195 11.0125 13.8125 11.0625 C 14.5265 11.4315 15.04525 12.0605 15.28125 12.8125 C 15.51425 13.5555 15.46175 14.3645 15.09375 15.0625 C 14.59275 16.0475 13.57175 16.65625 12.46875 16.65625 C 11.99775 16.65625 11.553 16.5365 11.125 16.3125 C 10.984 16.2415 10.84775 16.1535 10.71875 16.0625 C 11.86675 15.8885 12.8795 15.20025 13.4375 14.15625 C 13.9465 13.14325 13.97825 11.9455 13.53125 10.9375 z M 17.25 14.6875 C 17.056 14.6875 16.90625 14.83825 16.90625 15.03125 L 16.90625 15.40625 L 16.59375 15.40625 C 16.39975 15.40625 16.21875 15.557 16.21875 15.75 C 16.21875 15.943 16.40075 16.09375 16.59375 16.09375 L 16.90625 16.09375 L 16.90625 16.4375 C 16.90625 16.6305 17.057 16.8125 17.25 16.8125 C 17.443 16.8125 17.624 16.6315 17.625 16.4375 L 17.625 16.09375 L 17.96875 16.09375 C 18.16175 16.09375 18.3125 15.943 18.3125 15.75 C 18.3125 15.557 18.16175 15.40625 17.96875 15.40625 L 17.625 15.40625 L 17.625 15.03125 C 17.625 14.83825 17.444 14.6875 17.25 14.6875 z M 8.75 16.75 C 8.556 16.75 8.375 16.90075 8.375 17.09375 L 8.375 17.4375 L 8.03125 17.4375 C 7.83725 17.4375 7.6875 17.58825 7.6875 17.78125 C 7.6875 17.97425 7.83825 18.125 8.03125 18.125 L 8.375 18.125 L 8.375 18.5 C 8.375 18.693 8.557 18.84375 8.75 18.84375 C 8.944 18.84375 9.09375 18.693 9.09375 18.5 L 9.09375 18.125 L 9.4375 18.125 C 9.6315 18.125 9.78125 17.97425 9.78125 17.78125 C 9.78125 17.58825 9.6305 17.4375 9.4375 17.4375 L 9.09375 17.4375 L 9.09375 17.09375 C 9.09375 16.90075 8.944 16.75 8.75 16.75 z " transform="translate(0 1026.362)" class="colorfff svgShape"></path></g></svg></g></svg>