<svg xmlns="http://www.w3.org/2000/svg" xmlns:xlink="http://www.w3.org/1999/xlink" width="26" height="26" viewBox="0 0 26 26"><defs><linearGradient id="a"><stop offset="0" stop-color="#ffd800"/><stop offset="1" stop-color="#ff6100"/></linearGradient><linearGradient id="b" x1="906.952" x2="931.379" y1="515.915" y2="546.094" gradientTransform="matrix(.833 0 0 .833 -752.223 596.81)" gradientUnits="userSpaceOnUse" xlink:href="#a"/></defs><g transform="translate(0 -1026.362)"><rect width="26" height="26" y="1026.362" fill="url(#b)" rx="5.495" ry="5.495"/><path fill="#fff" d="M 13 5.6875 C 12.806 5.6875 12.65625 5.83825 12.65625 6.03125 L 12.65625 7.4375 C 12.65625 7.6305 12.807 7.78125 13 7.78125 C 13.193 7.78125 13.34375 7.6315 13.34375 7.4375 L 13.34375 6.03125 C 13.34375 5.83825 13.194 5.6875 13 5.6875 z M 8.03125 7.71875 C 7.941625 7.719 7.84925 7.7445 7.78125 7.8125 C 7.64425 7.9505 7.6755 8.1765 7.8125 8.3125 L 8.78125 9.3125 C 8.84925 9.3805 8.94225 9.40625 9.03125 9.40625 C 9.12125 9.40625 9.21325 9.3805 9.28125 9.3125 C 9.41825 9.1755 9.41825 8.9495 9.28125 8.8125 L 8.28125 7.8125 C 8.21275 7.7445 8.120875 7.7185 8.03125 7.71875 z M 17.9375 7.71875 C 17.848 7.71875 17.756 7.7445 17.6875 7.8125 L 16.6875 8.8125 C 16.5505 8.9495 16.5505 9.1755 16.6875 9.3125 C 16.7555 9.3815 16.8475 9.40625 16.9375 9.40625 C 17.0265 9.40625 17.1185 9.3805 17.1875 9.3125 L 18.1875 8.3125 C 18.3245 8.1755 18.3245 7.9495 18.1875 7.8125 C 18.119 7.7435 18.027 7.71875 17.9375 7.71875 z M 12.5625 8.96875 C 11.5265 9.07975 10.5765 9.60425 9.9375 10.40625 C 9.2755 11.21725 8.98775 12.23425 9.09375 13.28125 C 9.20075 14.32625 9.71725 15.24425 10.53125 15.90625 C 11.26025 16.48525 12.10675 16.78125 12.96875 16.78125 C 14.040494 16.78125 15.118241 16.336844 15.875 15.5 L 18.78125 15.5 L 18.8125 15.5 C 19.6905 15.429 20.34375 14.75925 20.34375 13.90625 C 20.34375 13.06625 19.68475 12.3725 18.84375 12.3125 C 18.76675 11.1585 17.78175 10.21875 16.59375 10.21875 C 16.374754 10.21875 16.168726 10.284437 15.96875 10.34375 C 15.815616 10.143189 15.657601 9.9771091 15.46875 9.84375 C 14.64775 9.17575 13.6145 8.85475 12.5625 8.96875 z M 12.625 9.65625 C 13.489 9.56325 14.33925 9.812 15.03125 10.375 C 15.137321 10.450214 15.225114 10.560048 15.3125 10.65625 C 14.821324 11.010471 14.481421 11.556866 14.40625 12.1875 C 13.51425 12.2295 12.75 12.97475 12.75 13.84375 C 12.75 14.66175 13.3685 15.33375 14.1875 15.46875 C 14.2395 15.49875 14.28075 15.5 14.34375 15.5 L 14.78125 15.5 C 13.649235 16.270918 12.106508 16.277529 10.96875 15.375 C 10.30275 14.833 9.86925 14.0465 9.78125 13.1875 C 9.69325 12.3265 9.954 11.51275 10.5 10.84375 C 11.025 10.18575 11.776 9.74825 12.625 9.65625 z M 16.59375 10.9375 C 17.46175 10.9375 18.15625 11.5865 18.15625 12.4375 C 18.15625 12.5135 18.135 12.5355 18.125 12.5625 C 18.089 12.6695 18.1225 12.784 18.1875 12.875 C 18.2525 12.967 18.35675 13.03125 18.46875 13.03125 C 18.52975 13.03125 18.58575 13.019 18.71875 13 C 19.22875 13 19.65625 13.41325 19.65625 13.90625 C 19.65625 14.38625 19.255 14.7655 18.75 14.8125 L 15.90625 14.8125 C 15.803076 14.758896 15.693945 14.757852 15.59375 14.8125 L 14.5 14.8125 C 14.467 14.7985 14.412 14.78125 14.375 14.78125 C 13.847 14.73725 13.46875 14.34275 13.46875 13.84375 C 13.46875 13.32875 13.93025 12.92425 14.53125 12.90625 C 14.78225 12.94925 15.0625 12.8185 15.0625 12.5625 L 15.0625 12.4375 C 15.0625 11.6015 15.75575 10.9375 16.59375 10.9375 z M 6 12.65625 C 5.806 12.65625 5.65625 12.807 5.65625 13 C 5.65625 13.193 5.807 13.375 6 13.375 L 7.40625 13.375 C 7.59925 13.375 7.75 13.193 7.75 13 C 7.75 12.807 7.59925 12.65625 7.40625 12.65625 L 6 12.65625 z M 9.03125 16.59375 C 8.94175 16.5935 8.85025 16.6195 8.78125 16.6875 L 7.8125 17.6875 C 7.6755 17.8245 7.64425 18.0505 7.78125 18.1875 C 7.84925 18.2555 7.94125 18.28125 8.03125 18.28125 C 8.12025 18.28125 8.21325 18.2555 8.28125 18.1875 L 9.28125 17.1875 C 9.41825 17.0505 9.41825 16.8245 9.28125 16.6875 C 9.21325 16.6205 9.12075 16.594 9.03125 16.59375 z M 16.9375 16.59375 C 16.848 16.593625 16.756 16.6185 16.6875 16.6875 C 16.5505 16.8245 16.5505 17.0505 16.6875 17.1875 L 17.6875 18.1875 C 17.7555 18.2555 17.8475 18.28125 17.9375 18.28125 C 18.0275 18.28125 18.1185 18.2565 18.1875 18.1875 C 18.3245 18.0505 18.3245 17.8245 18.1875 17.6875 L 17.1875 16.6875 C 17.119 16.619 17.027 16.593875 16.9375 16.59375 z M 13 18.21875 C 12.806 18.21875 12.65625 18.40075 12.65625 18.59375 L 12.65625 19.96875 C 12.65625 20.16175 12.807 20.3125 13 20.3125 C 13.193 20.3125 13.34375 20.16175 13.34375 19.96875 L 13.34375 18.59375 C 13.34375 18.40075 13.194 18.21875 13 18.21875 z " transform="translate(0 1026.362)"/></g></svg>